<?xml version="1.0" standalone="no"?>
<!DOCTYPE svg PUBLIC "-//W3C//DTD SVG 20010904//EN"
 "http://www.w3.org/TR/2001/REC-SVG-20010904/DTD/svg10.dtd">
<svg version="1.0" xmlns="http://www.w3.org/2000/svg"
 width="2048.000000pt" height="2048.000000pt" viewBox="0 0 2048.000000 2048.000000"
 preserveAspectRatio="xMidYMid meet">

<g transform="translate(0.000000,2048.000000) scale(0.100000,-0.100000)"
fill="#000000" stroke="none">
<path d="M0 10240 l0 -10240 10240 0 10240 0 0 10240 0 10240 -10240 0 -10240
0 0 -10240z m6790 2585 c0 -5 -87 -219 -140 -345 -73 -175 -241 -639 -318
-880 -171 -538 -326 -1181 -401 -1670 -11 -69 -27 -168 -35 -220 -23 -144 -64
-487 -77 -650 -6 -80 -14 -148 -18 -151 -3 -4 -49 -23 -101 -44 -111 -43 -276
-124 -375 -185 -203 -123 -432 -316 -561 -470 -32 -38 -61 -70 -64 -70 -4 0
-54 31 -111 69 -248 163 -551 351 -709 438 -30 17 -122 69 -205 116 -129 72
-644 337 -658 337 -2 0 -60 27 -128 59 -144 69 -433 193 -599 258 -63 24 -153
60 -200 78 -47 18 -184 68 -305 110 -121 43 -226 80 -233 84 -22 12 454 463
788 747 1189 1010 2566 1785 4020 2262 374 123 430 139 430 127z m4310 -1910
c0 -8 -2 -15 -4 -15 -2 0 -6 7 -10 15 -3 8 -1 15 4 15 6 0 10 -7 10 -15z
m-119 -273 c-50 -99 -201 -374 -303 -552 -259 -451 -698 -1096 -1005 -1477
-292 -361 -813 -950 -911 -1027 -23 -18 -24 -18 -70 0 -36 15 -73 19 -157 19
-101 0 -115 -2 -170 -29 -76 -38 -153 -114 -190 -190 -37 -76 -45 -195 -21
-301 14 -57 14 -71 4 -80 -8 -5 -108 -91 -223 -190 -301 -258 -663 -542 -922
-724 l-63 -44 0 -101 c-1 -391 -87 -938 -216 -1376 -61 -205 -75 -242 -93
-235 -41 16 -128 26 -175 20 -76 -11 -184 -64 -235 -117 -49 -51 -75 -97 -156
-275 -375 -829 -975 -1562 -1735 -2124 -242 -179 -467 -317 -743 -458 -315
-160 -540 -250 -892 -356 -531 -160 -983 -224 -1510 -211 -148 3 -291 9 -317
12 l-46 6 -9 117 c-12 174 -10 596 5 766 71 823 377 1681 860 2410 100 151
327 452 372 495 3 3 34 39 69 80 34 41 138 151 229 244 299 302 622 564 954
774 235 149 384 228 770 410 167 78 242 168 270 322 11 57 4 140 -16 190 -7
17 9 24 194 80 256 78 565 145 820 180 85 11 168 23 184 27 38 7 38 8 -76
-167 -201 -309 -426 -699 -601 -1045 -78 -154 -91 -200 -85 -303 15 -258 277
-434 519 -348 113 40 187 104 242 209 456 880 853 1487 1461 2237 277 341 738
829 1107 1171 482 448 1130 949 1674 1294 33 21 76 48 95 60 19 12 60 38 90
57 119 75 441 262 565 328 351 185 398 213 449 266 28 29 52 53 54 54 1 0 -20
-44 -47 -98z m1849 -3869 c0 -14 -61 -206 -146 -462 -454 -1358 -1146 -2618
-2053 -3741 -245 -304 -599 -697 -848 -942 l-88 -88 -59 168 c-124 355 -190
527 -316 822 -58 138 -65 154 -152 345 -54 119 -255 524 -293 590 -12 22 -43
78 -68 125 -42 80 -121 220 -199 355 -85 146 -263 433 -363 583 l-108 163 74
66 c318 285 536 604 684 1003 l13 35 99 8 c606 49 1316 168 1888 317 66 17
161 42 210 54 271 70 800 242 1115 363 185 71 492 195 550 222 49 22 60 25 60
14z"/>
</g>
</svg>
